<svg version="1.0" xmlns="http://www.w3.org/2000/svg" width="100%" height="100%" viewBox="0 0 1920.000000 364.000000" preserveAspectRatio="none">
                        <g transform="translate(0.000000,364.000000) scale(0.100000,-0.100000)" fill="#0221a3" stroke="none">
                        <path d="M17960 3420 c-451 -76 -1035 -340 -1800 -815 -330 -205 -497 -303
                        -676 -399 -1063 -567 -2226 -815 -3245 -691 -901 110 -1705 473 -2349 1060
                        -195 177 -311 254 -455 302 -110 36 -282 38 -399 5 -241 -69 -423 -198 -941
                        -666 -483 -437 -729 -620 -1052 -782 -356 -178 -745 -256 -1113 -224 -423 36
                        -855 183 -1320 449 -80 46 -275 170 -435 276 -159 106 -342 224 -405 262 -616
                        371 -1210 586 -1769 643 -150 15 -446 12 -595 -5 -474 -56 -928 -248 -1318
                        -557 l-88 -70 0 -1104 0 -1104 9600 0 9600 0 0 1558 0 1558 -92 56 c-215 131
                        -438 220 -627 252 -129 22 -382 20 -521 -4z"></path>
                        </g>
                    </svg>