<svg version="1.0" xmlns="http://www.w3.org/2000/svg" width="100%" height="100%" viewBox="0 0 1920.000000 364.000000" preserveAspectRatio="none">
                        <g transform="translate(0.000000,364.000000) scale(0.100000,-0.100000)" fill="rgba(1, 31, 162, 0.50)" stroke="none">
                        <path d="M3080 3443 c-119 -20 -304 -84 -429 -147 -252 -126 -485 -294 -941
                        -677 -547 -459 -812 -863 -850 -1299 -16 -189 11 -342 89 -505 27 -55 108
                        -258 181 -451 l132 -351 262 -6 c143 -4 4179 -7 8969 -7 l8707 0 0 1400 c0
                        770 -3 1400 -6 1400 -3 0 -59 -14 -125 -30 -393 -99 -836 -292 -1269 -553 -63
                        -38 -245 -156 -405 -262 -320 -213 -508 -325 -720 -426 -796 -381 -1489 -405
                        -2148 -75 -323 162 -569 345 -1052 782 -518 468 -700 597 -941 666 -117 33
                        -289 31 -399 -5 -144 -48 -260 -125 -455 -302 -428 -390 -922 -679 -1481 -866
                        -1147 -383 -2443 -274 -3739 313 -300 136 -561 278 -924 505 -869 544 -1457
                        816 -1931 893 -146 24 -396 26 -525 3z"></path>
                        </g>
                    </svg>